<svg id="Group_150" data-name="Group 150" xmlns="http://www.w3.org/2000/svg" width="120.08" height="89.509" viewBox="0 0 120.08 89.509">
  <ellipse id="Ellipse_23" data-name="Ellipse 23" cx="10.276" cy="0.784" rx="10.276" ry="0.784" transform="translate(0 86.473)" fill="#e6e6e6"/>
  <ellipse id="Ellipse_24" data-name="Ellipse 24" cx="10.276" cy="0.784" rx="10.276" ry="0.784" transform="translate(22.167 87.941)" fill="#e6e6e6"/>
  <path id="Path_262" data-name="Path 262" d="M636.293,145.142H584.438a1.142,1.142,0,0,0-1.14,1.141v86.831a1.141,1.141,0,0,0,1.14,1.141h51.855a1.138,1.138,0,0,0,1.125-.963.977.977,0,0,0,.015-.178V146.282A1.142,1.142,0,0,0,636.293,145.142Zm.684,87.971a.684.684,0,0,1-.684.684H584.438a.684.684,0,0,1-.684-.684V146.282a.685.685,0,0,1,.684-.684h51.855a.685.685,0,0,1,.684.684Z" transform="translate(-525.709 -145.142)" fill="#e6e6e6"/>
  <path id="Path_263" data-name="Path 263" d="M616.383,188.772a.457.457,0,0,0-.456.456v18.856a.457.457,0,0,0,.456.456h43.643a.457.457,0,0,0,.456-.456V189.228a.457.457,0,0,0-.456-.456Z" transform="translate(-553.548 -182.367)" fill="#e6e6e6"/>
  <path id="Path_264" data-name="Path 264" d="M492.3,289.272a.441.441,0,0,0-.44.44v18.2a.441.441,0,0,0,.44.44h42.133a.441.441,0,0,0,.44-.44v-18.2a.441.441,0,0,0-.44-.44Z" transform="translate(-447.694 -268.113)" fill="#6c63ff"/>
  <path id="Path_265" data-name="Path 265" d="M245.981,567.756a6.055,6.055,0,0,1-1.631,3.658c-.372.509-3.828,3.957-4.871,5.464-.253.365-6.458,7.528-6.776,8.192a3.146,3.146,0,0,0-.184.488,6.583,6.583,0,0,0-.178,2v.475a14.844,14.844,0,0,0,.326,3.079c.036.147.077.3.1.444a1.424,1.424,0,0,1-.186-.145l-3.373-2.5-.21-.157c-.215-.623-.419-1.253-.649-1.867a1.158,1.158,0,0,1,.251-1.088,6.153,6.153,0,0,1,.861-.786,5.061,5.061,0,0,0,.636-.809c2.327-3.387,8.882-15.542,9.36-17.989a5.6,5.6,0,0,1,1.908-.024l3.365.447a1.522,1.522,0,0,1,1,.395A1.229,1.229,0,0,1,245.981,567.756Z" transform="translate(-222.822 -504.314)" fill="#efb7b9"/>
  <path id="Path_266" data-name="Path 266" d="M387.656,565.48a3.6,3.6,0,0,1-.527,1.429c-.346.527-4.317,10.741-5.552,14.958a6.225,6.225,0,0,0-.132,1.783c-.02.215-.038.431-.054.644-.023.266-.041.532-.06.8a4.186,4.186,0,0,0,.2,2.071,6.236,6.236,0,0,1,.367.719,1.424,1.424,0,0,1-.316-.222l-3.373-2.5a15.483,15.483,0,0,1-.634-2.393,1.666,1.666,0,0,1,.163-1.345.642.642,0,0,1,.054-.062,1.479,1.479,0,0,1,.313-.225,2.6,2.6,0,0,0,.3-.193,1.129,1.129,0,0,0,.192-.192,2.829,2.829,0,0,0,.46-1.275c.326-1.849,3.089-13.2,3.037-13.478s-1.626-2.919-2.7-3.506a12.319,12.319,0,0,1,3.762-2.156,1.488,1.488,0,0,1,.775-.132,1.281,1.281,0,0,1,.4.163,6.928,6.928,0,0,1,1.846,1.719A4.873,4.873,0,0,1,387.656,565.48Z" transform="translate(-350.135 -499.259)" fill="#efb7b9"/>
  <path id="Path_267" data-name="Path 267" d="M314.8,453.229c-.1.986-2.876,1.859-6.38,2.4-.9.14-3.129-5.337-4.1-5.244-1.166.111-1.084,5.781-2.237,5.811-3.925.1-6.461-.3-7.281-1.462-.444-.108-.979-.362-.957-.815.015-.259.22-.489.219-.744,0-.444,1.287-5.3,2.045-7.6.189-.572.326-1.16.54-1.725.923-2.551,1.319-4.508,3.006-6.631a3.967,3.967,0,0,0,.63-.993,4.33,4.33,0,0,0,.223-1.342l.093-1.6a28.211,28.211,0,0,1,7.375.458.5.5,0,0,1,.515.486v0q.142.876.2,1.76a1.453,1.453,0,0,0,.055.385,1.6,1.6,0,0,0,.264.435,19.925,19.925,0,0,1,2.968,6.3c.685,2.225,1.23,4.511,2.091,6.687a9.44,9.44,0,0,1,.763,2.4A.719.719,0,0,1,314.8,453.229Z" transform="translate(-278.749 -390.937)" fill="#2f2e41"/>
  <path id="Path_268" data-name="Path 268" d="M429.467,340.336c.431-.364.861-.729,1.256-1.13a17.2,17.2,0,0,0,1.54-1.882,9.851,9.851,0,0,0,1.3-2.163,9.324,9.324,0,0,1,1.068-2.671.611.611,0,0,1,.276-.215c.347-.109.607.326.674.687.326,1.765-.452,3.526-1.208,5.154a4.681,4.681,0,0,1-.943,1.494,8.843,8.843,0,0,1-.742.569,7.77,7.77,0,0,0-1.05,1.034q-.815.926-1.551,1.92a21.029,21.029,0,0,1-1.9,2.389,4.783,4.783,0,0,1-2.632,1.447c.289-.039.194-1.734.163-1.947a9.931,9.931,0,0,1-.263-.979c-.008-.372.144-.426.45-.687Z" transform="translate(-391.041 -304.788)" fill="#efb7b9"/>
  <path id="Path_269" data-name="Path 269" d="M357.291,314.588s-.979,4.893-2.12,5.708,6.2,1.794,6.2,1.794.163-3.914,2.12-5.708S357.291,314.588,357.291,314.588Z" transform="translate(-330.969 -289.713)" fill="#efb7b9"/>
  <path id="Path_270" data-name="Path 270" d="M353.781,364.258a2.184,2.184,0,0,0,.749.1A5.871,5.871,0,0,0,357,363.78a.455.455,0,0,0,.186-.134.5.5,0,0,0,.008-.4c-.46-1.859.427-3.968-.453-5.667-.957.311-2.008.652-2.965.956a1.084,1.084,0,0,1-.463.078.978.978,0,0,1-.5-.272,10.048,10.048,0,0,1-2.283-3.381,13.694,13.694,0,0,0-2.105-3.513,3.486,3.486,0,0,0-3.169-1.391,2.045,2.045,0,0,0-1.253.669,3.489,3.489,0,0,0-.652,3.188,9.277,9.277,0,0,0,1.538,3,14.394,14.394,0,0,0,2.916,3.3,21.975,21.975,0,0,0,1.967,1.27" transform="translate(-320.884 -319.954)" fill="#e6e6e6"/>
  <circle id="Ellipse_25" data-name="Ellipse 25" cx="4.893" cy="4.893" r="4.893" transform="translate(25.261 18.76)" fill="#efb7b9"/>
  <path id="Path_271" data-name="Path 271" d="M344.723,352.854c-1.471,1.734-1.782,3.95-2.083,6.137-1.478-.5-3.115.339-4.645.033a5.881,5.881,0,0,0-2.388-.277c-.566-.054-1.127-.409-1.667-.228-.9.569-.023-2.953-.077-3.976C333.394,337.279,347.4,345.677,344.723,352.854Z" transform="translate(-312.612 -315.121)" fill="#e6e6e6"/>
  <path id="Path_272" data-name="Path 272" d="M442.8,344.78c.431-.364.861-.729,1.256-1.13a17.216,17.216,0,0,0,1.54-1.882,9.852,9.852,0,0,0,1.3-2.163,9.324,9.324,0,0,1,1.068-2.671.612.612,0,0,1,.276-.215c.347-.109.607.326.674.687.326,1.765-.452,3.526-1.208,5.154a4.682,4.682,0,0,1-.943,1.494,8.845,8.845,0,0,1-.742.569,7.766,7.766,0,0,0-1.05,1.034q-.815.926-1.551,1.92a21.022,21.022,0,0,1-1.9,2.389,4.783,4.783,0,0,1-2.632,1.447c.289-.039.194-1.734.163-1.947a9.906,9.906,0,0,1-.263-.979c-.008-.372.144-.426.45-.687Z" transform="translate(-402.415 -308.579)" fill="#efb7b9"/>
  <path id="Path_273" data-name="Path 273" d="M359.141,365.422l-.011.021c-.282.524-.7.964-.995,1.486a6.565,6.565,0,0,0-.608,1.928q-.135.669-.25,1.339a17.994,17.994,0,0,1-1.7-1.1,14.367,14.367,0,0,1-2.916-3.3,9.067,9.067,0,0,1-1.538-3,3.523,3.523,0,0,1,.652-3.188,2.048,2.048,0,0,1,1.253-.67,3.465,3.465,0,0,1,3.157,1.385,13.845,13.845,0,0,1,2.105,3.513C358.559,364.362,358.829,364.909,359.141,365.422Z" transform="translate(-327.519 -327.526)" opacity="0.1" style="isolation: isolate"/>
  <path id="Path_274" data-name="Path 274" d="M358.589,354.5a2.045,2.045,0,0,0-1.253.669,3.489,3.489,0,0,0-.652,3.188,9.277,9.277,0,0,0,1.538,3,14.394,14.394,0,0,0,2.916,3.3,21.987,21.987,0,0,0,1.967,1.27c1.126.694,2.208.478,3.241,1.3a2.723,2.723,0,0,0,.766.489,2.186,2.186,0,0,0,.749.1,6.35,6.35,0,0,0,2.472-.9.455.455,0,0,0,.186-.134.5.5,0,0,0,.008-.4c-.46-1.859.427-2.663-.453-4.363-.957.311-2.008.652-2.965.956a1.085,1.085,0,0,1-.463.078.978.978,0,0,1-.5-.272,10.048,10.048,0,0,1-2.283-3.381,13.7,13.7,0,0,0-2.105-3.513A3.486,3.486,0,0,0,358.589,354.5Z" transform="translate(-332.258 -323.745)" fill="#e6e6e6"/>
  <path id="Path_275" data-name="Path 275" d="M375.036,707.341a1.45,1.45,0,0,1-1.706.267,1.419,1.419,0,0,1-.316-.222l-3.373-2.5-1.337-.993a1.416,1.416,0,0,1-.021-2.053l.887-.692.367-.287.493-.385.431-.336,2.763,1.549.047.091,2.091,4.032A1.454,1.454,0,0,1,375.036,707.341Z" transform="translate(-341.892 -618.662)" fill="#2f2e41"/>
  <path id="Path_276" data-name="Path 276" d="M227.283,698.454a1.45,1.45,0,0,1-1.706.267c-.044-.023-.088-.049-.13-.077a1.425,1.425,0,0,1-.186-.145l-3.373-2.5-.21-.157L220.551,695a1.416,1.416,0,0,1-.021-2.053l.887-.692.367-.287.493-.385.431-.336.07.039,2.423,1.359.269.152.047.091,2.091,4.032A1.454,1.454,0,0,1,227.283,698.454Z" transform="translate(-215.83 -611.079)" fill="#2f2e41"/>
  <path id="Path_277" data-name="Path 277" d="M347.53,262.843c-1.895-2.147-4.031-3.173-6.592-2.231-4.109-1.379-9.511,8.1-6.185,11.537l5.633.47,1.725-3.106-.61,3.217,4.506.45C343.708,269.606,344.445,266.171,347.53,262.843Z" transform="translate(-312.77 -243.361)" fill="#2f2e41"/>
  <circle id="Ellipse_26" data-name="Ellipse 26" cx="4.275" cy="4.275" r="4.275" transform="translate(51.707 26.426)" fill="#fff"/>
  <path id="Path_40" data-name="Path 40" d="M635.173,350.4a.5.5,0,0,0,0,1h13.5a.5.5,0,1,0,.016-1H635.173Z" transform="translate(-569.543 -320.264)" fill="#fff"/>
  <path id="Path_40-2" data-name="Path 40" d="M635.173,330.67a.5.5,0,1,0,0,1h6.741a.5.5,0,1,0,.016-1h-6.757Z" transform="translate(-569.543 -303.433)" fill="#fff"/>
  <path id="Path_40-3" data-name="Path 40" d="M635.173,371.063a.5.5,0,1,0,0,1h13.5a.5.5,0,1,0,.016-1H635.173Z" transform="translate(-569.543 -337.897)" fill="#fff"/>
  <circle id="Ellipse_27" data-name="Ellipse 27" cx="1.064" cy="1.064" r="1.064" transform="translate(68.658 45.182)" fill="#e6e6e6"/>
  <path id="Path_40-4" data-name="Path 40" d="M692.632,456.411a.551.551,0,1,0,0,1.1h25.985a.551.551,0,1,0,.018-1.1h-26Z" transform="translate(-618.522 -410.715)" fill="#e6e6e6"/>
  <circle id="Ellipse_28" data-name="Ellipse 28" cx="1.064" cy="1.064" r="1.064" transform="translate(68.658 50.353)" fill="#e6e6e6"/>
  <path id="Path_40-5" data-name="Path 40" d="M692.632,491.63a.551.551,0,1,0,0,1.1h25.985a.551.551,0,1,0,.018-1.1h-26Z" transform="translate(-618.522 -440.764)" fill="#e6e6e6"/>
  <circle id="Ellipse_29" data-name="Ellipse 29" cx="1.064" cy="1.064" r="1.064" transform="translate(68.658 55.523)" fill="#e6e6e6"/>
  <path id="Path_40-6" data-name="Path 40" d="M692.632,526.849a.551.551,0,1,0,0,1.1h25.985a.551.551,0,1,0,.018-1.1h-26Z" transform="translate(-618.522 -470.812)" fill="#e6e6e6"/>
  <circle id="Ellipse_30" data-name="Ellipse 30" cx="1.064" cy="1.064" r="1.064" transform="translate(68.658 60.693)" fill="#e6e6e6"/>
  <path id="Path_40-7" data-name="Path 40" d="M692.632,562.068a.551.551,0,1,0,0,1.1h25.985a.551.551,0,0,0,.018-1.1h-26Z" transform="translate(-618.522 -500.861)" fill="#e6e6e6"/>
  <circle id="Ellipse_31" data-name="Ellipse 31" cx="1.064" cy="1.064" r="1.064" transform="translate(68.658 65.864)" fill="#e6e6e6"/>
  <path id="Path_40-8" data-name="Path 40" d="M692.632,597.287a.551.551,0,1,0,0,1.1h25.985a.551.551,0,1,0,.018-1.1h-26Z" transform="translate(-618.522 -530.91)" fill="#e6e6e6"/>
  <circle id="Ellipse_32" data-name="Ellipse 32" cx="1.064" cy="1.064" r="1.064" transform="translate(68.658 71.034)" fill="#e6e6e6"/>
  <path id="Path_40-9" data-name="Path 40" d="M692.632,632.506a.551.551,0,1,0,0,1.1h25.985a.551.551,0,1,0,.018-1.1h-26Z" transform="translate(-618.522 -560.959)" fill="#e6e6e6"/>
  <circle id="Ellipse_33" data-name="Ellipse 33" cx="1.064" cy="1.064" r="1.064" transform="translate(68.658 76.204)" fill="#e6e6e6"/>
  <path id="Path_40-10" data-name="Path 40" d="M692.632,667.725a.551.551,0,1,0,0,1.1h25.985a.551.551,0,1,0,.018-1.1h-26Z" transform="translate(-618.522 -591.007)" fill="#e6e6e6"/>
  <path id="Path_278" data-name="Path 278" d="M952.9,520.316c-.023.561-.59,12.144-8.371,18.473q-.488.4-1.014.765l-.265-.259h.154a.684.684,0,0,0,.684-.684V515.78c.163-.876.316-1.737.456-2.575.759-4.554,1.11-8.4.541-10,.246.617,5.192,13.245,2.506,26.112C950.247,525.675,952.772,521.852,952.9,520.316Z" transform="translate(-832.816 -450.64)" fill="#e6e6e6"/>
</svg>
