<svg xmlns="http://www.w3.org/2000/svg" width="121.253" height="94.693" viewBox="0 0 121.253 94.693">
  <g id="Group_153" data-name="Group 153" transform="translate(0)">
    <path id="Path_281" data-name="Path 281" d="M216.022,514.592a11.249,11.249,0,0,0,4.036-9.7,9.094,9.094,0,0,0-6.761-7.72,7.654,7.654,0,0,0-8.716,4.844c-.6-6.718-1.283-13.717-4.855-19.437a20.585,20.585,0,0,0-14.906-9.549,18.469,18.469,0,0,0-16.248,6.633,16.762,16.762,0,0,0-2.061,17.258c1.953,4.052,5.552,7.068,9.322,9.521a60.165,60.165,0,0,0,41.15,9" transform="translate(-165 -421.371)" fill="#f2f2f2"/>
    <path id="Path_282" data-name="Path 282" d="M213.059,483.753a98.442,98.442,0,0,1,13.719,13.623A98.731,98.731,0,0,1,242.229,523.2c.278.682-.829.979-1.1.3a98.173,98.173,0,0,0-28.876-38.939C211.677,484.1,212.492,483.292,213.059,483.753Z" transform="translate(-203.482 -430.112)" fill="#fff"/>
    <path id="Path_283" data-name="Path 283" d="M491,284.482H424.5V216.256a26.355,26.355,0,0,1,26.325-26.325h13.846A26.355,26.355,0,0,1,491,216.256Z" transform="translate(-377.225 -189.931)" fill="#f2f2f2"/>
    <path id="Path_284" data-name="Path 284" d="M477.149,284.485H424.5V216.259a26.121,26.121,0,0,1,5.027-15.475c.121-.165.242-.328.366-.488a26.316,26.316,0,0,1,5.6-5.438c.12-.087.241-.173.363-.259a26.264,26.264,0,0,1,5.734-3c.12-.046.243-.091.366-.135a26.236,26.236,0,0,1,5.667-1.336c.12-.016.243-.029.366-.042a26.656,26.656,0,0,1,5.667,0c.123.013.246.026.367.042a26.232,26.232,0,0,1,5.666,1.336c.123.044.245.09.366.135a26.2,26.2,0,0,1,5.667,2.954c.122.084.245.17.366.256a26.6,26.6,0,0,1,3.349,2.835,26.291,26.291,0,0,1,2.318,2.651c.124.16.245.323.365.488a26.121,26.121,0,0,1,5.028,15.475Z" transform="translate(-377.224 -189.934)" fill="#ccc"/>
    <circle id="Ellipse_34" data-name="Ellipse 34" cx="2.915" cy="2.915" r="2.915" transform="translate(92.729 58.206)" fill="#6c63ff"/>
    <path id="Path_285" data-name="Path 285" d="M579.8,469.11h-2.234l-1.063-8.615h3.3Z" transform="translate(-471.479 -376.602)" fill="#ffb8b8"/>
    <path id="Path_286" data-name="Path 286" d="M561.407,504.28h4.307v2.712h-7.02A2.712,2.712,0,0,1,561.407,504.28Z" transform="translate(-456.912 -412.411)" fill="#2f2e41"/>
    <path id="Path_287" data-name="Path 287" d="M640.8,469.11h-2.234l-1.063-8.615h3.3Z" transform="translate(-521.366 -376.602)" fill="#ffb8b8"/>
    <path id="Path_288" data-name="Path 288" d="M622.407,504.28h4.307v2.712h-7.019A2.712,2.712,0,0,1,622.407,504.28Z" transform="translate(-506.799 -412.411)" fill="#2f2e41"/>
    <path id="Path_289" data-name="Path 289" d="M696.581,421.7a1.957,1.957,0,0,1,.822-2.886L705,397.891l3.736,2.039-8.669,20a1.968,1.968,0,0,1-3.481,1.776Z" transform="translate(-599.462 -360.005)" fill="#ffb8b8"/>
    <path id="Path_290" data-name="Path 290" d="M801.412,437.549a1.957,1.957,0,0,1-.527-2.954l-2.352-22.136,4.251.194.978,21.774a1.968,1.968,0,0,1-2.35,3.122Z" transform="translate(-683.116 -371.918)" fill="#ffb8b8"/>
    <circle id="Ellipse_35" data-name="Ellipse 35" cx="4.475" cy="4.475" r="4.475" transform="translate(107.038 25.061)" fill="#ffb8b8"/>
    <path id="Path_291" data-name="Path 291" d="M753.622,410.611h-13.49l.016-.105c.024-.157,2.4-15.747.649-20.848A2.152,2.152,0,0,1,741.9,387h0c2.509-1.181,7.325-2.636,11.39.894a5.144,5.144,0,0,1,1.723,4.262Z" transform="translate(-635.355 -350.015)" fill="#6c63ff"/>
    <path id="Path_292" data-name="Path 292" d="M727.091,403.778l-6.073-1.232,2.847-6.746a2.55,2.55,0,1,1,4.938,1.275Z" transform="translate(-619.723 -356.73)" fill="#6c63ff"/>
    <path id="Path_293" data-name="Path 293" d="M795.187,408.185l-.365-8.37a2.573,2.573,0,1,1,5.026-.87l1.372,7.82Z" transform="translate(-680.041 -358.849)" fill="#6c63ff"/>
    <path id="Path_294" data-name="Path 294" d="M749.912,517.049c2.171,8.267,2.407,18.777,1.822,30.242l-2.915-.364-5.283-21.862-2.915,22.226-3.279-.182c-.979-12.029-1.933-22.356-.364-29.149Z" transform="translate(-632.093 -457.455)" fill="#2f2e41"/>
    <path id="Path_295" data-name="Path 295" d="M755.938,326.168a1.445,1.445,0,0,1-2.494-.8,1.476,1.476,0,0,1,0-.283,6.564,6.564,0,0,0,.293-1.595.837.837,0,0,0-.153-.392c-.665-.891-2.227.4-2.854-.408-.385-.494.068-1.273-.228-1.826-.39-.729-1.545-.37-2.269-.769-.806-.444-.757-1.681-.227-2.433a3.827,3.827,0,0,1,2.9-1.477,7.781,7.781,0,0,1,3.278.64,6.55,6.55,0,0,1,3.1,2.147,5.243,5.243,0,0,1,.53,4.464A8.419,8.419,0,0,1,755.938,326.168Z" transform="translate(-641.477 -293.174)" fill="#2f2e41"/>
    <path id="Path_297" data-name="Path 297" d="M522.367,352.631H498.684a1.178,1.178,0,0,1-1.184-1.169V298.6a1.178,1.178,0,0,1,1.184-1.169h23.683a1.178,1.178,0,0,1,1.184,1.169v52.863A1.178,1.178,0,0,1,522.367,352.631Z" transform="translate(-436.925 -277.846)" fill="#fff"/>
    <rect id="Rectangle_31" data-name="Rectangle 31" width="26.052" height="0.364" transform="translate(60.575 36.689)" fill="#ccc"/>
    <rect id="Rectangle_32" data-name="Rectangle 32" width="26.052" height="0.364" transform="translate(60.666 57.478)" fill="#ccc"/>
    <rect id="Rectangle_33" data-name="Rectangle 33" width="0.364" height="55.382" transform="translate(68.773 19.584)" fill="#ccc"/>
    <rect id="Rectangle_34" data-name="Rectangle 34" width="0.364" height="55.382" transform="translate(77.882 19.584)" fill="#ccc"/>
  </g>
</svg>
