<svg id="Group_318" data-name="Group 318" xmlns="http://www.w3.org/2000/svg" width="97.978" height="88.27" viewBox="0 0 97.978 88.27">
  <path id="Path_700" data-name="Path 700" d="M354.981,269.355c-1.685-5.036-6.887-7.835-10.31-6.69s-5.894,6.511-4.209,11.547c1.559,4.661,6.285,7.353,9.535,6.872a.368.368,0,0,0-.045.132l-.1.829a.373.373,0,0,0,.5.4l1.674-.6a.373.373,0,0,0,.132-.621l-.6-.577a.369.369,0,0,0-.071-.051C354.381,279.03,356.544,274.027,354.981,269.355Z" transform="translate(-330.706 -246.964)" fill="#f2f2f2"/>
  <path id="Path_701" data-name="Path 701" d="M397.787,280.814a6.143,6.143,0,0,1,2.78,7.991c-.145.33.388.5.532.176a6.717,6.717,0,0,0-3-8.633C397.782,280.18,397.469,280.645,397.787,280.814Z" transform="translate(-379.611 -262.128)" fill="#fff"/>
  <path id="Path_702" data-name="Path 702" d="M800.981,221.355c-1.685-5.036-6.887-7.835-10.31-6.69s-5.894,6.511-4.209,11.547c1.559,4.661,6.285,7.353,9.535,6.872a.369.369,0,0,0-.045.132l-.1.829a.373.373,0,0,0,.5.4l1.674-.6a.374.374,0,0,0,.132-.621l-.6-.577a.371.371,0,0,0-.071-.051C800.381,231.03,802.544,226.027,800.981,221.355Z" transform="translate(-708.497 -206.305)" fill="#f2f2f2"/>
  <path id="Path_703" data-name="Path 703" d="M843.787,232.814a6.143,6.143,0,0,1,2.78,7.991c-.145.33.388.5.532.176a6.717,6.717,0,0,0-3-8.633C843.782,232.18,843.469,232.645,843.787,232.814Z" transform="translate(-757.402 -221.469)" fill="#fff"/>
  <path id="Path_704" data-name="Path 704" d="M541.982,168.355c-1.685-5.036-6.887-7.835-10.31-6.69s-5.894,6.511-4.209,11.547c1.56,4.662,6.285,7.353,9.535,6.872a.368.368,0,0,0-.045.132l-.1.829a.373.373,0,0,0,.5.4l1.674-.6a.373.373,0,0,0,.132-.621l-.6-.577a.37.37,0,0,0-.071-.051C541.381,178.03,543.544,173.027,541.982,168.355Z" transform="translate(-489.107 -161.411)" fill="#f2f2f2"/>
  <path id="Path_705" data-name="Path 705" d="M584.787,179.814a6.143,6.143,0,0,1,2.78,7.991c-.145.33.388.5.532.176a6.718,6.718,0,0,0-3-8.633C584.782,179.18,584.469,179.645,584.787,179.814Z" transform="translate(-538.012 -176.574)" fill="#fff"/>
  <circle id="Ellipse_87" data-name="Ellipse 87" cx="0.401" cy="0.401" r="0.401" transform="translate(44.023 30.375)" fill="#ccc"/>
  <circle id="Ellipse_88" data-name="Ellipse 88" cx="0.793" cy="0.793" r="0.793" transform="translate(42.776 45.692)" fill="#ccc"/>
  <circle id="Ellipse_89" data-name="Ellipse 89" cx="0.458" cy="0.458" r="0.458" transform="translate(29.837 43.309)" fill="#ccc"/>
  <circle id="Ellipse_90" data-name="Ellipse 90" cx="0.496" cy="0.496" r="0.496" transform="translate(36.759 35.731)" fill="#ccc"/>
  <circle id="Ellipse_91" data-name="Ellipse 91" cx="0.401" cy="0.401" r="0.401" transform="translate(61.269 64.97)" fill="#ccc"/>
  <circle id="Ellipse_92" data-name="Ellipse 92" cx="0.793" cy="0.793" r="0.793" transform="translate(47.733 55.934)" fill="#ccc"/>
  <circle id="Ellipse_93" data-name="Ellipse 93" cx="0.458" cy="0.458" r="0.458" transform="translate(57.097 46.166)" fill="#ccc"/>
  <circle id="Ellipse_94" data-name="Ellipse 94" cx="0.496" cy="0.496" r="0.496" transform="translate(60.072 55.937)" fill="#ccc"/>
  <ellipse id="Ellipse_95" data-name="Ellipse 95" cx="1.034" cy="3.293" rx="1.034" ry="3.293" transform="translate(82.272 78.098) rotate(-39.938)" fill="#2f2e41"/>
  <circle id="Ellipse_96" data-name="Ellipse 96" cx="6.586" cy="6.586" r="6.586" transform="translate(71.587 72.229)" fill="#2f2e41"/>
  <rect id="Rectangle_86" data-name="Rectangle 86" width="2.001" height="3.585" transform="translate(78.96 83.984)" fill="#2f2e41"/>
  <rect id="Rectangle_87" data-name="Rectangle 87" width="2.001" height="3.585" transform="translate(74.958 83.984)" fill="#2f2e41"/>
  <ellipse id="Ellipse_97" data-name="Ellipse 97" cx="1.667" cy="0.625" rx="1.667" ry="0.625" transform="translate(77.626 86.985)" fill="#2f2e41"/>
  <ellipse id="Ellipse_98" data-name="Ellipse 98" cx="1.667" cy="0.625" rx="1.667" ry="0.625" transform="translate(73.624 86.902)" fill="#2f2e41"/>
  <path id="Path_706" data-name="Path 706" d="M776.789,604.5a4.9,4.9,0,0,1,9.467,2.351c-.588,2.368-2.539,2.376-5.154,1.727S776.2,606.87,776.789,604.5Z" transform="translate(-700.684 -533.966)" fill="#e6e6e6"/>
  <ellipse id="Ellipse_99" data-name="Ellipse 99" cx="1.034" cy="3.293" rx="1.034" ry="3.293" transform="translate(67.336 75.281) rotate(-64.626)" fill="#2f2e41"/>
  <circle id="Ellipse_100" data-name="Ellipse 100" cx="2.196" cy="2.196" r="2.196" transform="translate(74.993 75.229)" fill="#fff"/>
  <circle id="Ellipse_101" data-name="Ellipse 101" cx="0.732" cy="0.732" r="0.732" transform="translate(75.554 75.906)" fill="#3f3d56"/>
  <path id="Path_707" data-name="Path 707" d="M777.322,693.364a1.464,1.464,0,0,1-2.881.524h0v0c-.144-.8.471-1.077,1.267-1.221S777.178,692.568,777.322,693.364Z" transform="translate(-698.757 -611.363)" fill="#fff"/>
  <ellipse id="Ellipse_102" data-name="Ellipse 102" cx="3.293" cy="1.034" rx="3.293" ry="1.034" transform="matrix(0.357, -0.934, 0.934, 0.357, 20.916, 76.549)" fill="#2f2e41"/>
  <circle id="Ellipse_103" data-name="Ellipse 103" cx="6.586" cy="6.586" r="6.586" transform="translate(10.383 72.228)" fill="#2f2e41"/>
  <rect id="Rectangle_88" data-name="Rectangle 88" width="2.001" height="3.585" transform="translate(13.968 83.984)" fill="#2f2e41"/>
  <rect id="Rectangle_89" data-name="Rectangle 89" width="2.001" height="3.585" transform="translate(17.97 83.984)" fill="#2f2e41"/>
  <ellipse id="Ellipse_104" data-name="Ellipse 104" cx="1.667" cy="0.625" rx="1.667" ry="0.625" transform="translate(13.968 86.985)" fill="#2f2e41"/>
  <ellipse id="Ellipse_105" data-name="Ellipse 105" cx="1.667" cy="0.625" rx="1.667" ry="0.625" transform="translate(17.97 86.902)" fill="#2f2e41"/>
  <circle id="Ellipse_106" data-name="Ellipse 106" cx="2.251" cy="2.251" r="2.251" transform="translate(14.885 74.896)" fill="#fff"/>
  <circle id="Ellipse_107" data-name="Ellipse 107" cx="0.75" cy="0.75" r="0.75" transform="translate(16.386 76.397)" fill="#3f3d56"/>
  <path id="Path_708" data-name="Path 708" d="M348.314,606.218a4.9,4.9,0,0,1,9.52-2.126c.532,2.382-1.21,3.26-3.839,3.847S348.846,608.6,348.314,606.218Z" transform="translate(-337.734 -533.528)" fill="#e6e6e6"/>
  <ellipse id="Ellipse_108" data-name="Ellipse 108" cx="1.034" cy="3.293" rx="1.034" ry="3.293" transform="translate(6.133 75.282) rotate(-64.626)" fill="#2f2e41"/>
  <path id="Path_709" data-name="Path 709" d="M369.476,687.874c0,.645,1.66,1.917,3.5,1.917s3.569-1.815,3.569-2.459-1.727.125-3.569.125S369.476,687.229,369.476,687.874Z" transform="translate(-355.742 -606.682)" fill="#fff"/>
  <circle id="Ellipse_109" data-name="Ellipse 109" cx="6.586" cy="6.586" r="6.586" transform="translate(41.844 65.958)" fill="#2f2e41"/>
  <rect id="Rectangle_90" data-name="Rectangle 90" width="2.001" height="3.585" transform="translate(45.429 77.714)" fill="#2f2e41"/>
  <rect id="Rectangle_91" data-name="Rectangle 91" width="2.001" height="3.585" transform="translate(49.431 77.714)" fill="#2f2e41"/>
  <ellipse id="Ellipse_110" data-name="Ellipse 110" cx="1.667" cy="0.625" rx="1.667" ry="0.625" transform="translate(45.429 80.715)" fill="#2f2e41"/>
  <ellipse id="Ellipse_111" data-name="Ellipse 111" cx="1.667" cy="0.625" rx="1.667" ry="0.625" transform="translate(49.431 80.632)" fill="#2f2e41"/>
  <path id="Path_710" data-name="Path 710" d="M554.034,565.218a4.9,4.9,0,0,1,9.52-2.126c.532,2.382-1.211,3.26-3.839,3.847S554.565,567.6,554.034,565.218Z" transform="translate(-511.992 -498.799)" fill="#6c63ff"/>
  <ellipse id="Ellipse_112" data-name="Ellipse 112" cx="3.654" cy="1.147" rx="3.654" ry="1.147" transform="translate(51.322 70.629) rotate(-45.022)" fill="#2f2e41"/>
  <ellipse id="Ellipse_113" data-name="Ellipse 113" cx="1.147" cy="3.654" rx="1.147" ry="3.654" transform="translate(37.145 67.541) rotate(-44.978)" fill="#2f2e41"/>
  <path id="Path_711" data-name="Path 711" d="M749.084,296.46c-.219-6.754-4.844-12.084-10.331-11.907-12.212.362-12.51,22.757-.72,24.365l-.25,1.984,3.641-.118-.377-1.964C745.79,307.772,749.282,302.582,749.084,296.46Z" transform="translate(-660.611 -265.717)" fill="#ff6584"/>
  <path id="Path_712" data-name="Path 712" d="M740.637,343.738l-1.376.044a22.408,22.408,0,0,1-.252-7.8l1.376-.045A17.238,17.238,0,0,0,740.637,343.738Z" transform="translate(-668.568 -309.25)" fill="#fff"/>
  <rect id="Rectangle_92" data-name="Rectangle 92" width="4.129" height="0.918" transform="matrix(0.999, -0.032, 0.032, 0.999, 76.866, 43.207)" fill="#3f3d56"/>
  <path id="Path_713" data-name="Path 713" d="M448.907,318.274l-.415-.195,10.218-34.651.416.195Z" transform="translate(-379.902 -240.083)" fill="#3f3d56"/>
  <path id="Path_714" data-name="Path 714" d="M805.521,312.846c2.5-6.279.382-13.013-4.72-15.041-11.342-4.543-20.554,15.871-10.386,22.053l-1.021,1.72,3.386,1.345.438-1.951C797.985,321.9,803.259,318.539,805.521,312.846Z" transform="translate(-708.591 -276.392)" fill="#6c63ff"/>
  <path id="Path_715" data-name="Path 715" d="M798.27,336.444l-1.279-.508a22.4,22.4,0,0,1,2.88-7.248l1.279.508A17.239,17.239,0,0,0,798.27,336.444Z" transform="translate(-717.875 -303.105)" fill="#fff"/>
  <rect id="Rectangle_93" data-name="Rectangle 93" width="0.918" height="4.129" transform="translate(80.973 44.101) rotate(-68.328)" fill="#3f3d56"/>
  <path id="Path_716" data-name="Path 716" d="M448.472,323.739l-.4-.227,14.265-32.555.4.227Z" transform="translate(-379.547 -246.46)" fill="#3f3d56"/>
  <path id="Path_717" data-name="Path 717" d="M299.062,321.364c-2.7-6.194-8.968-9.438-14-7.244-11.213,4.851-3.212,25.769,8.338,22.906l.5,1.936,3.34-1.456-1.077-1.685C300.184,333.093,301.51,326.98,299.062,321.364Z" transform="translate(-279.671 -290.185)" fill="#6c63ff"/>
  <path id="Path_718" data-name="Path 718" d="M291.6,388.084l-1.262.55a22.4,22.4,0,0,1-3.116-7.15l1.262-.55A17.238,17.238,0,0,0,291.6,388.084Z" transform="translate(-286.067 -347.362)" fill="#fff"/>
  <rect id="Rectangle_94" data-name="Rectangle 94" width="4.129" height="0.918" transform="matrix(0.917, -0.4, 0.4, 0.917, 13.212, 47.051)" fill="#3f3d56"/>
  <path id="Path_719" data-name="Path 719" d="M391.309,496.707h0a.229.229,0,0,1-.278-.167l-9.972-31.6.445-.11,9.972,31.6A.229.229,0,0,1,391.309,496.707Z" transform="translate(-365.553 -418.427)" fill="#3f3d56"/>
  <path id="Path_720" data-name="Path 720" d="M331.674,736.9H307.663a.153.153,0,1,1,0-.306h24.011a.153.153,0,1,1,0,.306Z" transform="translate(-303.253 -648.625)" fill="#ccc"/>
  <path id="Path_721" data-name="Path 721" d="M730.674,736.9h-24.01a.153.153,0,1,1,0-.306h24.01a.153.153,0,1,1,0,.306Z" transform="translate(-641.232 -648.625)" fill="#ccc"/>
  <path id="Path_722" data-name="Path 722" d="M543.674,695.9h-24.01a.153.153,0,1,1,0-.306h24.01a.153.153,0,0,1,0,.306Z" transform="translate(-482.831 -613.895)" fill="#ccc"/>
  <circle id="Ellipse_114" data-name="Ellipse 114" cx="2.251" cy="2.251" r="2.251" transform="translate(45.903 69.36)" fill="#fff"/>
  <circle id="Ellipse_115" data-name="Ellipse 115" cx="0.75" cy="0.75" r="0.75" transform="translate(47.403 70.861)" fill="#3f3d56"/>
  <path id="Path_723" data-name="Path 723" d="M590.148,652.655a1.464,1.464,0,1,1-2.881.524h0v0c-.144-.8.471-1.077,1.267-1.221S590,651.859,590.148,652.655Z" transform="translate(-540.207 -576.88)" fill="#fff"/>
</svg>
