<svg xmlns="http://www.w3.org/2000/svg" width="46" height="46" viewBox="0 0 46 46">
  <g id="Group_131" data-name="Group 131" transform="translate(-320 -754)">
    <circle id="Ellipse_4" data-name="Ellipse 4" cx="23" cy="23" r="23" transform="translate(320 754)" fill="#6c62fc"/>
    <g id="Icon_ionic-ios-qr-scanner" data-name="Icon ionic-ios-qr-scanner" transform="translate(330.679 766.321)">
      <path id="Path_38" data-name="Path 38" d="M10.652,4.5h-3.4A3.882,3.882,0,0,0,3.375,8.381v3.4a.809.809,0,0,0,1.617,0V8.323A2.216,2.216,0,0,1,5.668,6.81,2.205,2.205,0,0,1,7.2,6.117h3.454a.809.809,0,0,0,0-1.617Z" transform="translate(-3.375 -4.5)" fill="#fff"/>
      <path id="Path_39" data-name="Path 39" d="M27.044,4.5H23.59a.809.809,0,0,0,0,1.617h3.454a2.205,2.205,0,0,1,1.531.693,2.216,2.216,0,0,1,.676,1.513v3.454a.809.809,0,0,0,1.617,0V8.323A3.828,3.828,0,0,0,27.044,4.5Z" transform="translate(-6.84 -4.5)" fill="#fff"/>
      <path id="Path_40" data-name="Path 40" d="M10.652,28.125H7.2a2.351,2.351,0,0,1-2.206-2.206V22.465a.809.809,0,0,0-1.617,0v3.454A3.828,3.828,0,0,0,7.2,29.742h3.454a.809.809,0,0,0,0-1.617Z" transform="translate(-3.375 -7.564)" fill="#fff"/>
      <path id="Path_41" data-name="Path 41" d="M30.059,21.656a.811.811,0,0,0-.809.809v3.454a2.351,2.351,0,0,1-2.206,2.206H23.59a.809.809,0,0,0,0,1.617h3.4a3.886,3.886,0,0,0,3.881-3.881v-3.4A.811.811,0,0,0,30.059,21.656Z" transform="translate(-6.84 -7.564)" fill="#fff"/>
    </g>
  </g>
</svg>
